<svg width="100" height="22" viewBox="0 0 100 22" fill="none" xmlns="http://www.w3.org/2000/svg">
<g clip-path="url(#clip0_297_1386)">
<path fill-rule="evenodd" clip-rule="evenodd" d="M83.6543 17.0455L83.4267 16.8383C82.8724 16.3351 82.775 15.4175 83.2802 14.8281L89.2095 7.62217C89.6828 7.03275 90.5457 6.92917 91.1 7.46633L91.3276 7.67442C91.8819 8.17675 91.9793 9.09525 91.4742 9.68375L85.5449 16.8897C85.0716 17.4791 84.2414 17.5478 83.6543 17.0455Z" fill="url(#paint0_linear_297_1386)"/>
<path opacity="0.4" fill-rule="evenodd" clip-rule="evenodd" d="M88.412 8.8698L88.2973 8.73047L87.3853 9.83964L87.4827 9.96064C89.0473 11.6235 88.3792 13.3037 88.0206 13.8931L88.1508 13.7373C88.3628 13.477 88.6887 13.0791 89.0301 12.6465C89.3887 11.9874 89.8939 10.4281 88.412 8.8698Z" fill="url(#paint1_linear_297_1386)"/>
<path opacity="0.4" fill-rule="evenodd" clip-rule="evenodd" d="M90.3665 11.035L90.6113 10.7407C90.6277 10.7059 90.6596 10.6711 90.676 10.6362C90.4156 10.9479 90.1389 11.2779 89.8777 11.6061C90.0734 11.3815 90.2363 11.1908 90.3665 11.035Z" fill="url(#paint2_radial_297_1386)"/>
<path fill-rule="evenodd" clip-rule="evenodd" d="M91.5077 7.84678L85.5767 0.641779C85.1043 0.0514453 84.2405 -0.0530547 83.687 0.485945L83.4595 0.692195C82.9052 1.19453 82.8077 2.11303 83.3129 2.70153L88.3138 8.72953L88.4276 8.86886C89.9103 10.4455 89.4052 12.0039 89.031 12.662C89.3241 12.2981 89.6172 11.9342 89.8939 11.6051C90.1552 11.276 90.4319 10.9469 90.6922 10.6353C90.9534 10.3236 91.1974 10.0294 91.3603 9.83778C91.9302 9.24928 92.012 8.43528 91.5069 7.84678H91.5077Z" fill="url(#paint3_linear_297_1386)"/>
<path fill-rule="evenodd" clip-rule="evenodd" d="M91.1809 17.0455L90.9534 16.8383C90.399 16.3351 90.3016 15.4175 90.8068 14.8281L96.7361 7.62217C97.2085 7.03275 98.0723 6.92917 98.6258 7.46633L98.8542 7.67442C99.4077 8.17675 99.5059 9.09525 99.0008 9.68375L93.0706 16.8897C92.5982 17.4791 91.768 17.5478 91.1809 17.0455Z" fill="url(#paint4_linear_297_1386)"/>
<path opacity="0.4" fill-rule="evenodd" clip-rule="evenodd" d="M96.0033 8.80004L95.8895 8.66162L94.9766 9.77079L95.0748 9.89179C96.6386 11.5546 95.9714 13.2349 95.6119 13.8243L95.7429 13.6685C95.9541 13.4081 96.28 13.0094 96.6223 12.5767C96.9809 11.9185 97.486 10.3584 96.0033 8.80004Z" fill="url(#paint5_linear_297_1386)"/>
<path opacity="0.4" fill-rule="evenodd" clip-rule="evenodd" d="M97.8767 11.035L98.1216 10.7407C98.1371 10.7059 98.1698 10.6711 98.1862 10.6362C97.9259 10.9479 97.6491 11.2779 97.3879 11.6061C97.5836 11.3815 97.7629 11.1908 97.8767 11.035Z" fill="url(#paint6_radial_297_1386)"/>
<path fill-rule="evenodd" clip-rule="evenodd" d="M99.0174 7.84678L93.0872 0.641779C92.6148 0.0514453 91.7519 -0.0530548 91.1975 0.485945L90.97 0.692195C90.4157 1.19545 90.3182 2.11395 90.8234 2.70245L95.8243 8.73045L95.9381 8.86978C97.4208 10.4464 96.9157 12.0048 96.5415 12.6629C96.8346 12.299 97.1277 11.9351 97.4044 11.606C97.6648 11.2769 97.9424 10.9479 98.2027 10.6362C98.4631 10.3245 98.7079 10.0303 98.8708 9.8387C99.4407 9.2502 99.5225 8.43528 99.0174 7.84678Z" fill="url(#paint7_linear_297_1386)"/>
<path fill-rule="evenodd" clip-rule="evenodd" d="M26.3267 0.0698242C27.8741 0.0698242 29.2422 0.432824 30.3827 1.12582C31.5396 1.85366 32.4189 2.87574 33.0379 4.17466C33.6577 5.49191 33.9672 7.05024 33.9672 8.83499C33.9672 10.7572 33.6086 12.4375 32.875 13.8061C32.1586 15.1921 31.1164 16.1967 29.7638 16.8384C30.4646 17.0804 31.0345 17.635 31.5069 18.449L32.3215 19.7479C32.4845 20.0431 32.5819 20.3199 32.5819 20.6142C32.5819 20.9781 32.4526 21.2897 32.175 21.5152C31.8983 21.7407 31.5715 21.8792 31.2138 21.8792C30.937 21.8792 30.6758 21.8095 30.4319 21.6711C30.2034 21.5327 29.9922 21.3246 29.8284 21.0652L28.4931 18.7093C28.281 18.328 28.0043 18.0502 27.662 17.877C27.3198 17.7037 26.8802 17.6002 26.3258 17.6002C24.7465 17.6002 23.3939 17.2362 22.237 16.5432C21.081 15.8163 20.2008 14.7942 19.5819 13.4944C18.9629 12.1607 18.6534 10.6014 18.6534 8.83499C18.6534 7.05024 18.9793 5.50841 19.5819 4.17466C20.2008 2.85832 21.0965 1.85366 22.237 1.12582C23.3939 0.398908 24.7457 0.0698242 26.3276 0.0698242H26.3267ZM65.344 0.0863242C65.7345 0.0863242 66.0439 0.260491 66.3207 0.623491L70.9965 6.79082L75.6552 0.623491C75.931 0.276991 76.2741 0.103741 76.6646 0.103741C77.0069 0.103741 77.3164 0.243074 77.5931 0.537324C77.8707 0.831574 78.0008 1.14324 78.0008 1.55941C78.0008 1.87107 77.8871 2.20016 77.6586 2.49441L72.4621 9.23282V15.9722C72.4621 16.4745 72.3319 16.8549 72.0543 17.1501C71.7776 17.4434 71.4353 17.5653 71.0112 17.5653C70.5715 17.5653 70.1974 17.4269 69.9207 17.1501C69.6431 16.8723 69.5129 16.4919 69.5129 15.9722V9.23282L64.3491 2.47699C64.1207 2.18366 64.0069 1.87107 64.0069 1.54199C64.0069 1.16066 64.1371 0.814157 64.4138 0.519908C64.6914 0.225658 65.0172 0.0863242 65.3422 0.0863242H65.344ZM44.1974 0.225658C45.9241 0.225658 47.2603 0.675741 48.2215 1.61074C49.1827 2.51182 49.6715 3.81074 49.6715 5.45707C49.6715 7.10249 49.1827 8.40141 48.2215 9.31991C47.2603 10.2549 45.9241 10.7059 44.1974 10.7059H40.1086V15.9373C40.1086 16.4397 39.9784 16.821 39.7017 17.0978C39.4241 17.3921 39.0664 17.5305 38.6095 17.5305C38.1698 17.514 37.7957 17.3747 37.5508 17.0813C37.2741 16.7862 37.1439 16.4048 37.1439 15.9199V1.69782C37.1439 1.23032 37.2733 0.866408 37.5345 0.606991C37.7957 0.364074 38.1379 0.225658 38.5776 0.225658H44.1974ZM14.1405 0.0863242C14.5802 0.0863242 14.9715 0.225658 15.2319 0.519908C15.5095 0.814157 15.6396 1.17807 15.6396 1.64557V15.9199C15.6396 16.3874 15.5095 16.7862 15.2319 17.0804C14.9552 17.3747 14.5965 17.514 14.1405 17.514C13.7172 17.514 13.3586 17.3747 13.0819 17.0804C12.8052 16.7862 12.6741 16.4048 12.6741 15.9199V1.64557C12.6741 1.17807 12.8052 0.814157 13.0819 0.519908C13.3586 0.225658 13.7008 0.0863242 14.1405 0.0863242ZM57.2793 0.0698242C57.6052 0.0698242 57.8983 0.155991 58.1758 0.311824C58.4517 0.485991 58.6638 0.727991 58.8103 1.05707L65.1483 15.4863C65.2129 15.7118 65.2621 15.9025 65.2621 16.128C65.2621 16.4919 65.1155 16.8036 64.8388 17.0813C64.5612 17.3233 64.2353 17.4617 63.8612 17.4617C63.6327 17.4617 63.3888 17.3921 63.1767 17.2537C62.9646 17.1152 62.7853 16.8897 62.6715 16.612L61.2871 13.356H53.2715L51.887 16.6129C51.7569 16.9072 51.5939 17.1152 51.3819 17.2537C51.1698 17.3921 50.9422 17.4617 50.6819 17.4617C50.3396 17.4617 49.9974 17.3233 49.7207 17.0804C49.4276 16.8384 49.2965 16.5084 49.2965 16.1271C49.2965 15.9199 49.3457 15.6944 49.4267 15.4863L55.7483 1.05707C55.8776 0.745408 56.0905 0.485074 56.3836 0.311824C56.6603 0.138574 56.9526 0.0698242 57.2793 0.0698242ZM1.48274 0.103741C1.92239 0.103741 2.31291 0.243074 2.57412 0.537324C2.85084 0.831574 2.98101 1.19549 2.98101 1.66299V14.8107H9.3836C10.2957 14.8107 10.7681 15.2443 10.7681 16.0932C10.7681 16.942 10.2957 17.3747 9.3836 17.3747H1.40084C0.961185 17.3747 0.618944 17.2372 0.374978 16.9768C0.14653 16.7339 0.0163574 16.37 0.0163574 15.9199V1.66299C0.0163574 1.19549 0.14653 0.831574 0.423254 0.537324C0.70084 0.243074 1.04308 0.103741 1.48274 0.103741ZM26.2931 2.53016C24.7948 2.53016 23.6379 3.06732 22.8077 4.14166C21.9767 5.23249 21.5534 6.75691 21.5534 8.80107C21.5534 10.8452 21.9758 12.3697 22.8077 13.4605C23.6379 14.5522 24.8112 15.0894 26.2939 15.0894C27.7767 15.0894 28.9327 14.5522 29.7638 13.4605C30.5948 12.3697 31.0181 10.8113 31.0181 8.80107C31.0181 6.75691 30.5948 5.23249 29.7638 4.14166C28.9327 3.04991 27.7914 2.53016 26.2931 2.53016ZM57.2793 3.72549L54.2655 10.9314H60.3095L57.2793 3.72549ZM43.8224 2.66766H40.1086V8.29782L43.8233 8.31524C45.8431 8.31524 46.8698 7.36191 46.8698 5.49191C46.8698 3.62099 45.8431 2.66857 43.8233 2.66857L43.8224 2.66766Z" fill="#1B1B1B"/>
</g>
<defs>
<linearGradient id="paint0_linear_297_1386" x1="191.704" y1="764.424" x2="911.989" y2="373.863" gradientUnits="userSpaceOnUse">
<stop stop-color="#1FADC3"/>
<stop offset="0.7072" stop-color="#36B98F"/>
</linearGradient>
<linearGradient id="paint1_linear_297_1386" x1="184.422" y1="205.335" x2="259.958" y2="146.007" gradientUnits="userSpaceOnUse">
<stop stop-color="#123F06" stop-opacity="0"/>
<stop offset="1" stop-color="#123F06"/>
</linearGradient>
<radialGradient id="paint2_radial_297_1386" cx="0" cy="0" r="1" gradientUnits="userSpaceOnUse" gradientTransform="translate(-188.025 123.096) scale(397.214 422.257)">
<stop offset="0.4185" stop-color="#123F06" stop-opacity="0"/>
<stop offset="1" stop-color="#123F06"/>
</radialGradient>
<linearGradient id="paint3_linear_297_1386" x1="219.834" y1="302.756" x2="870.762" y2="677.009" gradientUnits="userSpaceOnUse">
<stop stop-color="#9FDB57"/>
<stop offset="1" stop-color="#71CA5E"/>
</linearGradient>
<linearGradient id="paint4_linear_297_1386" x1="198.625" y1="764.866" x2="918.898" y2="374.324" gradientUnits="userSpaceOnUse">
<stop stop-color="#1FADC3"/>
<stop offset="0.7072" stop-color="#36B98F"/>
</linearGradient>
<linearGradient id="paint5_linear_297_1386" x1="192.05" y1="205.266" x2="267.593" y2="145.91" gradientUnits="userSpaceOnUse">
<stop stop-color="#123F06" stop-opacity="0"/>
<stop offset="1" stop-color="#123F06"/>
</linearGradient>
<radialGradient id="paint6_radial_297_1386" cx="0" cy="0" r="1" gradientUnits="userSpaceOnUse" gradientTransform="translate(-179.844 123.096) scale(397.214 422.257)">
<stop offset="0.4185" stop-color="#123F06" stop-opacity="0"/>
<stop offset="1" stop-color="#123F06"/>
</radialGradient>
<linearGradient id="paint7_linear_297_1386" x1="227.619" y1="303.091" x2="878.57" y2="677.331" gradientUnits="userSpaceOnUse">
<stop stop-color="#9FDB57"/>
<stop offset="1" stop-color="#71CA5E"/>
</linearGradient>
<clipPath id="clip0_297_1386">
<rect width="100" height="22" fill="white"/>
</clipPath>
</defs>
</svg>
