<svg width="100" height="27" viewBox="0 0 100 27" fill="none" xmlns="http://www.w3.org/2000/svg">
<path d="M37.2668 5.52197H31.7515C31.3741 5.52197 31.0531 5.80015 30.9942 6.17815L28.7636 20.5266C28.7192 20.8097 28.9354 21.065 29.2184 21.065H31.8515C32.2289 21.065 32.5499 20.7868 32.6088 20.408L33.2104 16.538C33.2684 16.1592 33.5902 15.881 33.9668 15.881H35.7128C39.3459 15.881 41.4426 14.0973 41.9902 10.5628C42.237 9.01643 42.0007 7.80143 41.287 6.95052C40.5031 6.01615 39.1128 5.52197 37.2668 5.52197ZM37.9031 10.7624C37.6015 12.7702 36.0894 12.7702 34.6273 12.7702H33.7951L34.3789 9.02052C34.4136 8.79388 34.6072 8.62697 34.833 8.62697H35.2144C36.2104 8.62697 37.1499 8.62697 37.6354 9.20297C37.9249 9.54661 38.0136 10.0572 37.9031 10.7624Z" fill="#253B80"/>
<path d="M53.7531 10.6978H51.112C50.887 10.6978 50.6927 10.8647 50.658 11.0913L50.541 11.8408L50.3564 11.5692C49.7846 10.7273 48.5096 10.4458 47.237 10.4458C44.3185 10.4458 41.8257 12.6884 41.3402 15.8343C41.0878 17.4036 41.4467 18.9042 42.3241 19.9506C43.1289 20.9128 44.2806 21.3137 45.6507 21.3137C48.0023 21.3137 49.3064 19.7796 49.3064 19.7796L49.1886 20.5242C49.1443 20.8089 49.3604 21.0642 49.6419 21.0642H52.0209C52.3991 21.0642 52.7185 20.786 52.7781 20.4072L54.2056 11.2362C54.2507 10.9539 54.0354 10.6978 53.7531 10.6978ZM50.0717 15.9129C49.8169 17.4437 48.6193 18.4713 47.0919 18.4713C46.3249 18.4713 45.712 18.2218 45.3185 17.7489C44.9281 17.2793 44.7798 16.6108 44.9039 15.8663C45.1419 14.3485 46.3596 13.2873 47.8636 13.2873C48.6136 13.2873 49.2233 13.5402 49.6249 14.0172C50.0273 14.4991 50.187 15.1716 50.0717 15.9129Z" fill="#253B80"/>
<path d="M67.8193 10.6978H65.1652C64.912 10.6978 64.6741 10.8254 64.5305 11.0389L60.8701 16.5093L59.3185 11.2525C59.2209 10.9236 58.9217 10.6978 58.583 10.6978H55.9749C55.658 10.6978 55.4378 11.0119 55.5386 11.3147L58.462 20.0185L55.7136 23.9548C55.4975 24.2648 55.7152 24.6911 56.0886 24.6911H58.7394C58.991 24.6911 59.2265 24.5668 59.3693 24.3573L68.1967 11.43C68.408 11.1208 68.191 10.6978 67.8193 10.6978Z" fill="#253B80"/>
<path d="M76.6064 5.52197H71.0903C70.7137 5.52197 70.3927 5.80015 70.3338 6.17815L68.1032 20.5266C68.0588 20.8097 68.275 21.065 68.5564 21.065H71.3871C71.65 21.065 71.875 20.8702 71.9161 20.6052L72.5492 16.538C72.6072 16.1592 72.929 15.881 73.3056 15.881H75.0508C78.6847 15.881 80.7806 14.0973 81.329 10.5628C81.5766 9.01643 81.3387 7.80143 80.625 6.95052C79.8419 6.01615 78.4524 5.52197 76.6064 5.52197ZM77.2427 10.7624C76.9419 12.7702 75.4298 12.7702 73.9669 12.7702H73.1355L73.7201 9.02052C73.7548 8.79388 73.9468 8.62697 74.1734 8.62697H74.5548C75.55 8.62697 76.4903 8.62697 76.9758 9.20297C77.2653 9.54661 77.3532 10.0572 77.2427 10.7624Z" fill="#179BD7"/>
<path d="M93.092 10.6978H90.4525C90.2259 10.6978 90.0331 10.8647 89.9992 11.0913L89.8823 11.8408L89.6968 11.5692C89.125 10.7273 87.8509 10.4458 86.5783 10.4458C83.6597 10.4458 81.1678 12.6884 80.6823 15.8343C80.4307 17.4036 80.7879 18.9042 81.6654 19.9506C82.4718 20.9128 83.6218 21.3137 84.992 21.3137C87.3436 21.3137 88.6476 19.7796 88.6476 19.7796L88.5299 20.5242C88.4855 20.8089 88.7017 21.0642 88.9847 21.0642H91.3629C91.7396 21.0642 92.0605 20.786 92.1194 20.4072L93.5476 11.2362C93.5912 10.9539 93.375 10.6978 93.092 10.6978ZM89.4105 15.9129C89.1573 17.4437 87.9581 18.4713 86.4307 18.4713C85.6654 18.4713 85.0508 18.2218 84.6573 17.7489C84.267 17.2793 84.1202 16.6108 84.2428 15.8663C84.4823 14.3485 85.6984 13.2873 87.2025 13.2873C87.9525 13.2873 88.5621 13.5402 88.9638 14.0172C89.3678 14.4991 89.5275 15.1716 89.4105 15.9129Z" fill="#179BD7"/>
<path d="M96.2055 5.91536L93.9418 20.5265C93.8975 20.8095 94.1136 21.0648 94.3951 21.0648H96.6709C97.0491 21.0648 97.37 20.7866 97.4281 20.4078L99.6604 6.06018C99.7047 5.77709 99.4886 5.521 99.2071 5.521H96.6588C96.4338 5.52181 96.2402 5.68872 96.2055 5.91536Z" fill="#179BD7"/>
<path d="M5.85975 23.8533L6.28152 21.1353L5.342 21.1133H0.855713L3.97346 1.05716C3.98313 0.996618 4.01458 0.940163 4.06055 0.900072C4.10652 0.859982 4.16539 0.837891 4.22668 0.837891H11.7912C14.3025 0.837891 16.0356 1.36807 16.9404 2.41453C17.3646 2.90544 17.6347 3.41844 17.7654 3.98298C17.9025 4.57535 17.9049 5.28307 17.771 6.14625L17.7614 6.20925V6.76235L18.1856 7.00616C18.5428 7.19844 18.8267 7.41853 19.0444 7.67053C19.4073 8.09025 19.642 8.62371 19.7412 9.25616C19.8436 9.90662 19.8097 10.6806 19.642 11.5569C19.4485 12.5649 19.1356 13.4428 18.713 14.1612C18.3243 14.8231 17.8291 15.3721 17.2412 15.7975C16.6799 16.2017 16.013 16.5085 15.2589 16.7049C14.5283 16.898 13.6952 16.9953 12.7815 16.9953H12.1928C11.7718 16.9953 11.363 17.1492 11.042 17.4249C10.7202 17.7063 10.5073 18.0909 10.442 18.5114L10.3976 18.7561L9.65249 23.5465L9.61862 23.7224C9.60975 23.7781 9.59442 23.8059 9.57184 23.8247C9.55168 23.8419 9.52265 23.8533 9.49442 23.8533H5.85975Z" fill="#253B80"/>
<path d="M18.587 6.27295C18.5644 6.4194 18.5386 6.56913 18.5096 6.72295C17.512 11.9192 14.0991 13.7143 9.74021 13.7143H7.52085C6.98779 13.7143 6.5386 14.107 6.45553 14.6405L5.31924 21.9518L4.99747 24.0242C4.94344 24.3744 5.20956 24.6902 5.55795 24.6902H9.49424C9.96037 24.6902 10.3563 24.3466 10.4297 23.8802L10.4684 23.6773L11.2096 18.9057L11.2571 18.6439C11.3297 18.1759 11.7265 17.8322 12.1926 17.8322H12.7813C16.595 17.8322 19.5805 16.2613 20.4531 11.7155C20.8176 9.81649 20.6289 8.23086 19.6644 7.11568C19.3725 6.7794 19.0104 6.5004 18.587 6.27295Z" fill="#179BD7"/>
<path d="M17.5435 5.85058C17.3911 5.80558 17.2338 5.76467 17.0725 5.72785C16.9104 5.69185 16.7443 5.65994 16.5733 5.63212C15.9749 5.53394 15.3193 5.4873 14.6169 5.4873H8.68782C8.54186 5.4873 8.40315 5.52085 8.27895 5.5814C8.00557 5.71476 7.80234 5.9774 7.75315 6.29894L6.49186 14.4039L6.45557 14.6403C6.53863 14.1069 6.98782 13.7141 7.52089 13.7141H9.74024C14.0991 13.7141 17.512 11.9182 18.5096 6.72276C18.5394 6.56894 18.5644 6.41921 18.587 6.27276C18.3346 6.13694 18.0612 6.02076 17.7669 5.92176C17.6943 5.89721 17.6193 5.87349 17.5435 5.85058Z" fill="#222D65"/>
<path d="M7.75322 6.29918C7.80241 5.97764 8.00564 5.715 8.27902 5.58245C8.40402 5.52191 8.54193 5.48836 8.68789 5.48836H14.6169C15.3193 5.48836 15.975 5.535 16.5734 5.63318C16.7443 5.661 16.9105 5.69291 17.0726 5.72891C17.2339 5.76573 17.3911 5.80664 17.5435 5.85164C17.6193 5.87455 17.6943 5.89827 17.7677 5.922C18.0621 6.021 18.3355 6.138 18.5879 6.273C18.8847 4.35273 18.5855 3.04527 17.5621 1.86136C16.4339 0.558 14.3976 0 11.7919 0H4.22741C3.69515 0 3.24112 0.392727 3.15886 0.927L0.0080555 21.1893C-0.0540413 21.5902 0.250797 21.9518 0.649184 21.9518H5.31935L6.49193 14.4041L7.75322 6.29918Z" fill="#253B80"/>
</svg>
