<svg width="14" height="15" viewBox="0 0 14 15" fill="none" xmlns="http://www.w3.org/2000/svg">
<path fill-rule="evenodd" clip-rule="evenodd" d="M7.00005 3.41189C5.01478 3.41189 3.40544 5.0243 3.40544 7.01335C3.40544 9.00235 5.01478 10.6148 7.00005 10.6148C8.98526 10.6148 10.5946 9.00235 10.5946 7.01335C10.5946 5.0243 8.98526 3.41189 7.00005 3.41189ZM7.00005 9.3511C5.71136 9.3511 4.66669 8.30444 4.66669 7.01335C4.66669 5.72221 5.71136 4.67555 7.00005 4.67555C8.28868 4.67555 9.33334 5.72221 9.33334 7.01335C9.33334 8.30444 8.28868 9.3511 7.00005 9.3511Z" fill="#E8E8E8"/>
<path d="M10.7366 4.11119C11.2005 4.11119 11.5766 3.73442 11.5766 3.26959C11.5766 2.80479 11.2005 2.42801 10.7366 2.42801C10.2727 2.42801 9.89659 2.80479 9.89659 3.26959C9.89659 3.73442 10.2727 4.11119 10.7366 4.11119Z" fill="#E8E8E8"/>
<path fill-rule="evenodd" clip-rule="evenodd" d="M7 0C5.0989 0 4.86052 0.00808179 4.11389 0.0422171C3.36883 0.0762702 2.85996 0.194812 2.4147 0.368201C1.95439 0.547425 1.56401 0.787248 1.17488 1.17715C0.785723 1.56702 0.546355 1.95815 0.367473 2.41933C0.194414 2.86542 0.0760977 3.37526 0.0421094 4.12174C0.00803906 4.86978 0 5.10862 0 7.01335C0 8.91802 0.00803906 9.15686 0.0421094 9.9049C0.0760977 10.6514 0.194414 11.1612 0.367473 11.6073C0.546355 12.0685 0.785723 12.4596 1.17488 12.8496C1.56401 13.2394 1.95439 13.4792 2.4147 13.6585C2.85996 13.8318 3.36883 13.9504 4.11389 13.9845C4.86052 14.0186 5.0989 14.0266 7 14.0266C8.90105 14.0266 9.13943 14.0186 9.88605 13.9845C10.6311 13.9504 11.14 13.8318 11.5852 13.6585C12.0455 13.4792 12.4359 13.2394 12.8251 12.8496C13.2142 12.4596 13.4536 12.0685 13.6325 11.6073C13.8055 11.1612 13.9238 10.6514 13.9578 9.9049C13.9919 9.15686 13.9999 8.91802 13.9999 7.01335C13.9999 5.10862 13.9919 4.86978 13.9578 4.12174C13.9238 3.37526 13.8055 2.86542 13.6325 2.41933C13.4536 1.95815 13.2142 1.56702 12.8251 1.17715C12.4359 0.787248 12.0455 0.547425 11.5852 0.368201C11.14 0.194812 10.6311 0.0762702 9.88605 0.0422171C9.13943 0.00808179 8.90105 0 7 0ZM7 1.26369C8.86905 1.26369 9.09046 1.27081 9.82857 1.30456C10.511 1.33577 10.8817 1.45001 11.1284 1.54603C11.4551 1.67326 11.6883 1.82525 11.9332 2.07066C12.1782 2.31608 12.3299 2.54974 12.4569 2.87706C12.5527 3.1242 12.6667 3.49555 12.6979 4.17933C12.7316 4.91888 12.7387 5.1407 12.7387 7.01335C12.7387 8.88597 12.7316 9.10779 12.6979 9.84732C12.6667 10.5311 12.5527 10.9024 12.4569 11.1496C12.3299 11.4769 12.1782 11.7106 11.9332 11.956C11.6883 12.2014 11.4551 12.3534 11.1284 12.4806C10.8817 12.5767 10.511 12.6909 9.82857 12.7221C9.09057 12.7558 8.86919 12.763 7 12.763C5.13075 12.763 4.90943 12.7558 4.17137 12.7221C3.4889 12.6909 3.11825 12.5767 2.87159 12.4806C2.54486 12.3534 2.31167 12.2014 2.0667 11.956C1.82175 11.7106 1.67005 11.4769 1.54309 11.1496C1.44722 10.9024 1.3332 10.5311 1.30205 9.84732C1.26837 9.10779 1.26126 8.88597 1.26126 7.01335C1.26126 5.1407 1.26837 4.91888 1.30205 4.17933C1.3332 3.49555 1.44722 3.1242 1.54309 2.87706C1.67005 2.54974 1.82175 2.31608 2.0667 2.07066C2.31167 1.82525 2.54486 1.67326 2.87159 1.54603C3.11825 1.45001 3.4889 1.33577 4.17137 1.30456C4.90952 1.27081 5.13092 1.26369 7 1.26369Z" fill="#E8E8E8"/>
</svg>
